Coordinates
version=1
nRows=29
nColumns=22
inDegrees=yes

Units are S.I. units (second, meters, Newtons, ...)
If the header above contains a line with 'inDegrees', this indicates whether rotational values are in degrees (yes) or radians (no).

endheader
time	pelvis_tilt	pelvis_list	pelvis_rotation	pelvis_tx	pelvis_ty	pelvis_tz	hip_flexion_r	hip_adduction_r	hip_rotation_r	knee_angle_r	ankle_angle_r	subtalar_angle_r	hip_flexion_l	hip_adduction_l	hip_rotation_l	knee_angle_l	ankle_angle_l	subtalar_angle_l	lumbar_extension	lumbar_bending	lumbar_rotation
      0.01000000	      1.65682953	     -2.93562582	     -7.66993507	     -1.15236035	      0.93847493	     -0.09160718	     -3.12054619	      1.28667072	      3.17870355	     -6.52776684	      4.66657027	      2.06582775	     -2.85878524	     -5.07843778	    -14.98963711	    -10.04125879	      8.57606392	      4.90946824	     -3.28332285	     -1.55296369	     -0.66318565
      0.02000000	      1.65768872	     -2.93215693	     -7.65773971	     -1.15228729	      0.93845967	     -0.09147444	     -3.12735191	      1.29291298	      3.18234262	     -6.53037627	      4.66869967	      2.06580272	     -2.86168113	     -5.08415424	    -14.98774392	    -10.04448915	      8.57649232	      4.90971072	     -3.27464519	     -1.55776943	     -0.66360976
      0.03000000	      1.65821445	     -2.92913164	     -7.64348456	     -1.15222040	      0.93844237	     -0.09131795	     -3.13359553	      1.30155811	      3.18531583	     -6.53324299	      4.67244789	      2.06537230	     -2.86401035	     -5.09229254	    -14.98349040	    -10.04644188	      8.57783860	      4.91006391	     -3.26726393	     -1.56303358	     -0.66351160
      0.04000000	      1.65626538	     -2.94837705	     -7.60258464	     -1.15218041	      0.93841394	     -0.09118527	     -3.14829280	      1.33691724	      3.18108973	     -6.52125162	      4.71670927	      2.05555136	     -2.85487752	     -5.12712485	    -14.91566330	    -10.06006963	      8.59930694	      4.91682571	     -3.26895522	     -1.54010798	     -0.68410147
      0.05000000	      1.65803598	     -2.94249570	     -7.58991485	     -1.15210414	      0.93839691	     -0.09102359	     -3.15378203	      1.34273009	      3.18199507	     -6.52880538	      4.71608491	      2.05450271	     -2.85944975	     -5.13120725	    -14.91485588	    -10.06160326	      8.60131566	      4.91743165	     -3.25991503	     -1.54353784	     -0.68440060
      0.06000000	      1.65995411	     -2.93670467	     -7.57294000	     -1.15203922	      0.93837892	     -0.09087196	     -3.15906858	      1.34822657	      3.18448445	     -6.53621909	      4.71728028	      2.05312599	     -2.86258956	     -5.13573874	    -14.91200914	    -10.06236758	      8.60414876	      4.91819488	     -3.25402614	     -1.54638784	     -0.68370410
      0.07000000	      1.67310466	     -2.93551611	     -7.53240307	     -1.15202026	      0.93836610	     -0.09075506	     -3.17721831	      1.35877030	      3.18748797	     -6.54174049	      4.74992588	      2.03599064	     -2.86455932	     -5.14509753	    -14.84726053	    -10.07620067	      8.63562135	      4.92775178	     -3.27378207	     -1.54632933	     -0.70704375
      0.08000000	      1.67610387	     -2.92788567	     -7.51775063	     -1.15193993	      0.93835054	     -0.09062468	     -3.18551838	      1.35961138	      3.18932840	     -6.54726642	      4.75110014	      2.03450416	     -2.86959064	     -5.14581388	    -14.84626397	    -10.07814518	      8.63680879	      4.92831337	     -3.26407899	     -1.54292913	     -0.70545657
      0.09000000	      1.69965769	     -2.91703247	     -7.48170472	     -1.15188281	      0.93835405	     -0.09051571	     -3.23018403	      1.35547537	      3.19096902	     -6.52441104	      4.78696045	      2.01288846	     -2.88544245	     -5.14147370	    -14.79282934	    -10.09134851	      8.65816281	      4.93546912	     -3.28494123	     -1.54955631	     -0.71817424
      0.10000000	      1.70296423	     -2.90975249	     -7.47008860	     -1.15183129	      0.93834234	     -0.09036269	     -3.23728101	      1.35835137	      3.19311189	     -6.52955592	      4.78708714	      2.01168458	     -2.88933166	     -5.14346929	    -14.79210468	    -10.09223557	      8.65851819	      4.93548368	     -3.27964591	     -1.54892051	     -0.71563777
      0.11000000	      1.75817024	     -2.91168686	     -7.43904105	     -1.15177783	      0.93839531	     -0.09022310	     -3.32044156	      1.36468892	      3.18905491	     -6.49985451	      4.81145200	      1.97343301	     -2.94794396	     -5.14844973	    -14.74201608	    -10.09353859	      8.68208155	      4.93118558	     -3.33983773	     -1.54691187	     -0.72753752
      0.12000000	      1.76621200	     -2.90661130	     -7.43284674	     -1.15176003	      0.93839375	     -0.09003832	     -3.33390974	      1.37007699	      3.18638851	     -6.49727952	      4.80962849	      1.97026296	     -2.94893277	     -5.15548123	    -14.72980150	    -10.10941255	      8.67718327	      4.92925774	     -3.34491412	     -1.54873662	     -0.70046432
      0.13000000	      1.77632846	     -2.90564705	     -7.42837104	     -1.15176206	      0.93839506	     -0.08984649	     -3.35032411	      1.37984235	      3.18551726	     -6.49176962	      4.81223657	      1.96613325	     -2.95067074	     -5.16692697	    -14.71413540	    -10.12924282	      8.67906231	      4.92574616	     -3.35608507	     -1.54525406	     -0.67832011
      0.14000000	      1.78709906	     -2.91059034	     -7.42245284	     -1.15178399	      0.93839942	     -0.08964700	     -3.36719586	      1.39658910	      3.17969924	     -6.48543592	      4.81500856	      1.95997943	     -2.95139934	     -5.18596100	    -14.70006304	    -10.15102813	      8.68656544	      4.92043091	     -3.37187739	     -1.53684557	     -0.65933509
      0.15000000	      1.78785506	     -2.90568509	     -7.42414114	     -1.15182764	      0.93839384	     -0.08942211	     -3.36741684	      1.40516147	      3.17678788	     -6.48302258	      4.81540269	      1.95909356	     -2.94936734	     -5.19514092	    -14.69785335	    -10.15287780	      8.68777818	      4.91954923	     -3.37781329	     -1.54073905	     -0.65752132
      0.16000000	      1.79454799	     -2.91816493	     -7.41124024	     -1.15191242	      0.93839384	     -0.08921518	     -3.37340920	      1.43291923	      3.15765754	     -6.48448920	      4.81802657	      1.95132854	     -2.93394646	     -5.22785429	    -14.67985331	    -10.19060023	      8.69224010	      4.91456887	     -3.40106718	     -1.52760220	     -0.63038582
      0.17000000	      1.79248286	     -2.91333060	     -7.41398868	     -1.15200202	      0.93838509	     -0.08899637	     -3.36774670	      1.44121870	      3.15371462	     -6.48035113	      4.81849038	      1.95032496	     -2.92735644	     -5.23729275	    -14.67943239	    -10.18879675	      8.69398758	      4.91403978	     -3.41365236	     -1.53059628	     -0.63260090
      0.18000000	      1.77316174	     -2.95454839	     -7.37095684	     -1.15214445	      0.93834132	     -0.08882380	     -3.33626590	      1.50771300	      3.08695947	     -6.50325774	      4.81803025	      1.91530092	     -2.85924639	     -5.31432403	    -14.66418567	    -10.26673208	      8.74217018	      4.90863216	     -3.42370110	     -1.47864411	     -0.67523675
      0.19000000	      1.73288688	     -2.95252639	     -7.34298881	     -1.15229620	      0.93826930	     -0.08864636	     -3.27843535	      1.52839570	      3.06283023	     -6.51971782	      4.82266672	      1.88070369	     -2.77728802	     -5.34044740	    -14.62919621	    -10.31544935	      8.76278463	      4.91281190	     -3.40432401	     -1.47666315	     -0.69878221
      0.20000000	      1.72921515	     -2.94598993	     -7.33809750	     -1.15240276	      0.93825279	     -0.08845459	     -3.27033457	      1.53549518	      3.06255593	     -6.51605389	      4.82368109	      1.88034752	     -2.76717798	     -5.34752261	    -14.62921049	    -10.31032082	      8.76272046	      4.91274000	     -3.42230258	     -1.48284001	     -0.69699987
      0.21000000	      1.72605535	     -2.94656000	     -7.31402597	     -1.15256558	      0.93823344	     -0.08828914	     -3.24985562	      1.55271097	      3.05981671	     -6.53743408	      4.83112082	      1.87395275	     -2.72722097	     -5.36942404	    -14.60052194	    -10.35581058	      8.75516661	      4.91305186	     -3.45331770	     -1.48386289	     -0.69893739
      0.22000000	      1.69711691	     -2.95443895	     -7.26752450	     -1.15270627	      0.93817572	     -0.08816012	     -3.20844621	      1.58182339	      3.01026039	     -6.55164012	      4.84847358	      1.85755093	     -2.65312642	     -5.40503396	    -14.56594604	    -10.40931122	      8.76787482	      4.91474115	     -3.45276225	     -1.47046485	     -0.73697050
      0.23000000	      1.69128424	     -2.94770089	     -7.25693712	     -1.15279455	      0.93815941	     -0.08800225	     -3.19985207	      1.58745417	      3.00902231	     -6.54745673	      4.84864741	      1.85699463	     -2.64239894	     -5.41005817	    -14.56758787	    -10.40014624	      8.76989984	      4.91479826	     -3.46892479	     -1.47506340	     -0.73450329
      0.24000000	      1.65306956	     -2.94911689	     -7.20167421	     -1.15291969	      0.93809354	     -0.08790824	     -3.14561430	      1.60956036	      2.93979503	     -6.56891278	      4.85231897	      1.83833511	     -2.56101032	     -5.43608122	    -14.50943273	    -10.44351286	      8.78850041	      4.91641098	     -3.45526362	     -1.46664335	     -0.77087251
      0.25000000	      1.64802182	     -2.94306232	     -7.18989162	     -1.15300294	      0.93808318	     -0.08775971	     -3.13863264	      1.61510770	      2.93918242	     -6.56398788	      4.85331370	      1.83828148	     -2.55103534	     -5.44156875	    -14.51052077	    -10.43619160	      8.78853334	      4.91629572	     -3.47269175	     -1.47219380	     -0.76464754
      0.26000000	      1.64430739	     -2.94088480	     -7.16360838	     -1.15309681	      0.93807648	     -0.08763252	     -3.13277782	      1.62514103	      2.91741099	     -6.56170655	      4.85680664	      1.83778523	     -2.52729381	     -5.45441806	    -14.48500156	    -10.45519391	      8.77988749	      4.91564496	     -3.49372372	     -1.47613753	     -0.74016064
      0.27000000	      1.63939475	     -2.93591019	     -7.14612074	     -1.15317371	      0.93807123	     -0.08749743	     -3.12637208	      1.63158611	      2.91427837	     -6.55842609	      4.85738286	      1.83800747	     -2.51763733	     -5.46069118	    -14.48612570	    -10.44622565	      8.78002230	      4.91544101	     -3.51008723	     -1.48121272	     -0.73542488
      0.28000000	      1.63196093	     -2.94662634	     -7.08063884	     -1.15325468	      0.93806111	     -0.08742505	     -3.11360649	      1.65758355	      2.81246226	     -6.57061274	      4.85463256	      1.84386830	     -2.48443093	     -5.48919825	    -14.41546952	    -10.46534565	      8.77475751	      4.91352737	     -3.52654812	     -1.46890968	     -0.76251353
      0.29000000	      1.62737114	     -2.94161444	     -7.06268199	     -1.15333588	      0.93805751	     -0.08728749	     -3.10768847	      1.66400058	      2.81055142	     -6.56629564	      4.85527581	      1.84441598	     -2.47495678	     -5.49560883	    -14.41644054	    -10.45617410	      8.77536898	      4.91336509	     -3.54257051	     -1.47642680	     -0.75427617
